<svg xmlns="http://www.w3.org/2000/svg" version="1.1" xmlns:xlink="http://www.w3.org/1999/xlink" width="2000" height="1500" viewBox="0 0 2000 1500"><rect width="2000" height="1500" x="0" y="0" id="background" stroke="transparent" fill="#c8dbf0"></rect><svg xml:space="preserve" width="1500" height="1125" data-version="2" data-id="lg_rih78dK5MsGoKHsVxM" viewBox="0 0 386 561" x="250" y="187.5"><rect width="100%" height="100%" fill="transparent"></rect><path fill="#eeff01" stroke="#282a36" stroke-width="1.26" d="M-.255 432.92h383.73"></path><g transform="translate(192.23 400.2)"><filter id="a" width="162%" height="242%" x="-31%" y="-71%"><feGaussianBlur in="SourceAlpha" stdDeviation="5"></feGaussianBlur><feOffset dx="2" dy="2" result="oBlur"></feOffset><feFlood flood-color="#fff" flood-opacity="0"></feFlood><feComposite in2="oBlur" operator="in"></feComposite><feMerge><feMergeNode></feMergeNode><feMergeNode in="SourceGraphic"></feMergeNode></feMerge></filter><g filter="url(#a)"><rect width="88" height="22.6" x="-44" y="-11.3" fill="none" rx="0" ry="0" transform="translate(-10.42)"></rect><path fill="#282a36" d="M-51.43-6.16v16.99h11.26V9.04h-8.68V2.99h8.15v-1.7h-8.15v-5.67h8.68v-1.78zm20.05 17.09q3.7 0 5.14-1.4 1.45-1.4 1.45-3.42 0-2.17-1.33-3.05t-4.53-1.66Q-32.94.83-34.23.2q-1.29-.62-1.29-2.1 0-1.15 1.06-1.89t3.02-.74q1.94 0 3 .86 1.05.85 1.05 3.66h2.58q0-3.21-1.44-4.75t-5.16-1.54q-3.65 0-5.12 1.37-1.48 1.37-1.48 3.31 0 2.13 1.34 3.07t4.45 1.71q2.33.56 3.61 1.17 1.27.61 1.27 2.13 0 1.24-1.04 1.97-1.04.72-3.02.72t-3.01-.87q-1.03-.86-1.03-3.76h-2.58q0 3.4 1.43 4.9 1.43 1.51 5.21 1.51m13.95-15.31v15.21h2.58V-4.38h5.19v-1.78h-12.98v1.78zM-5.29 8.47h-2.4v2.35h2.4zm8.56.82v1.54h11.26V9.04H5.95q0-.97.93-2.05.93-1.07 3.08-2.46 2.07-1.42 3.33-2.91 1.25-1.49 1.25-3.64 0-1.78-1.13-3.02-1.13-1.25-4.4-1.25-3.3 0-4.54 1.6T3.23-.3h2.56q0-2.44.83-3.32t2.39-.88q1.44 0 2.21.55.76.56.76 1.95 0 1.58-.83 2.66t-3.1 2.5Q5.56 4.65 4.41 6.15q-1.14 1.5-1.14 3.14m18.76 1.7q2.84 0 4.2-1.09t1.36-3.36v-8.4q0-2.26-1.36-3.35-1.37-1.09-4.2-1.09-2.84 0-4.21 1.08-1.36 1.09-1.36 3.36v8.4q0 2.27 1.37 3.36t4.2 1.09m0-1.79q-1.6 0-2.31-.68-.71-.69-.71-2.11v-8.14q0-1.42.7-2.1t2.32-.68q1.59 0 2.3.68.71.69.71 2.1v8.14q0 1.41-.71 2.1t-2.3.69m7.62.09v1.54h11.27V9.04h-8.59q0-.97.94-2.05.93-1.07 3.08-2.46 2.06-1.42 3.32-2.91t1.26-3.64q0-1.78-1.13-3.02-1.14-1.25-4.41-1.25-3.29 0-4.53 1.6T29.62-.3h2.55q0-2.44.83-3.32t2.39-.88q1.45 0 2.21.55.76.56.76 1.95 0 1.58-.83 2.66t-3.09 2.5q-2.5 1.49-3.64 2.99-1.15 1.5-1.15 3.14m20.04-2.68v4.22h2.53V6.61h2.2V4.92h-2.2V-6.16h-3.78L42.56 4.91v1.7zm0-1.69h-4.56l4.52-9.23h.04z"></path></g></g><path fill="#eeff01" stroke="#282a36" stroke-width="1.26" d="M1.49 516.18h384.68"></path><rect width="300" height="51.98" x="-150" y="-25.99" fill="none" rx="0" ry="0" transform="translate(193.18 474.73)"></rect><path fill="#282a36" d="M51.39 464.94v-11.63h33.97v11.63h-10v24.24H61.39v-24.24zm52.82 25.07q-3.01 0-5.86-1.04-2.85-1.05-5.13-3.01-2.28-1.97-3.62-4.72t-1.34-6.14q0-3.35 1.26-6.09t3.46-4.71q2.2-1.96 5.09-3.03 2.88-1.07 6.14-1.07 4.58 0 8.29 1.81 3.7 1.81 5.87 5.17t2.17 8.01q0 3.41-1.33 6.15-1.32 2.74-3.61 4.67t-5.22 2.97q-2.93 1.03-6.17 1.03m-1.41-9.07q.98 0 2.2-.94 1.21-.93 2.33-2.38 1.13-1.45 1.86-3.04.73-1.6.73-2.92 0-1.01-.53-1.84t-1.81-.83q-1.17 0-2.47.88-1.3.89-2.44 2.32-1.13 1.42-1.84 3.03t-.71 3.07q0 .98.59 1.81.58.84 2.09.84m42.13-20.69v11.54q-1.39 0-2.9.72-1.5.72-2.52 1.73t-1.02 1.91v13.03h-13.53v-27.92h13.53v2.99q1.14-1.73 2.84-2.77 1.69-1.03 3.6-1.23m26.62 17.2v10.99q-1.89.72-3.94 1.14-2.06.43-4.24.43-2.96 0-5.75-.9-2.78-.9-4.98-2.66t-3.51-4.37q-1.3-2.6-1.3-6.02 0-4.76 2.21-8.34 2.21-3.59 6.16-5.57 3.94-1.99 9.1-1.99.93 0 2.65.2 1.73.2 3.15.76v8.65q-.34-.29-.78-.4-.43-.11-.88-.11-1.15 0-2.39.68-1.25.69-2.31 1.88-1.05 1.19-1.72 2.69-.66 1.51-.66 3.12 0 1.33.41 1.98.4.65 1.02.85.62.21 1.2.21.47 0 1.22-.17.76-.17 2.03-.86 1.26-.68 3.31-2.19m18.6 11.73H176.8v-37.8h13.35v12.87q1.46-1.93 3.79-2.99 2.34-1.06 4.9-1.06 3.01 0 5.46 1.41 2.44 1.4 3.89 4.04t1.45 6.32v17.21h-13.43v-12.11q0-3.73-1.19-5.99-1.19-2.27-2.72-2.27-1.17 0-1.66.84t-.49 2.1zm38.19.83q-2.72 0-5.3-.85-2.58-.86-4.67-2.55-2.09-1.7-3.32-4.19-1.24-2.5-1.24-5.8 0-4.11 1.47-7.2 1.47-3.08 3.99-5.14 2.51-2.05 5.7-3.09 3.19-1.03 6.63-1.03 4.36 0 7.09 1.32 2.72 1.33 4 3.42 1.29 2.09 1.29 4.4 0 2.49-1.6 4.83-1.59 2.34-4.68 3.84-3.09 1.51-7.61 1.51-.42 0-1.13-.02-.71-.01-1.22-.03 0 1.42.67 2.04.67.63 1.7.79 1.02.16 2.05.16.92 0 2.59-.31 1.68-.3 3.63-1.11 1.96-.81 3.71-2.31l1.39 6.98q-2.65 2.3-6.7 3.32-4.06 1.02-8.44 1.02m-.6-15.7 4.91-1.1.43-3.44q0-.13.02-.26.03-.12.03-.25 0-1.98-1.85-1.98-1.59.13-2.22 1.09-.63.95-.81 2.49t-.51 3.45m34.41 15.7q-2.72 0-5.3-.85-2.59-.86-4.68-2.55-2.09-1.7-3.32-4.19-1.24-2.5-1.24-5.8 0-4.11 1.47-7.2 1.48-3.08 3.99-5.14 2.52-2.05 5.71-3.09 3.19-1.03 6.62-1.03 4.36 0 7.09 1.32 2.73 1.33 4.01 3.42t1.28 4.4q0 2.49-1.6 4.83-1.59 2.34-4.68 3.84-3.09 1.51-7.6 1.51-.43 0-1.14-.02-.7-.01-1.22-.03 0 1.42.67 2.04.68.63 1.7.79t2.05.16q.93 0 2.6-.31 1.67-.3 3.63-1.11 1.95-.81 3.7-2.31l1.39 6.98q-2.65 2.3-6.7 3.32t-8.43 1.02m-.61-15.7 4.92-1.1.43-3.44q0-.13.02-.26.02-.12.02-.25 0-1.98-1.84-1.98-1.6.13-2.23 1.09-.62.95-.8 2.49t-.52 3.45m34.42 15.7q-2.72 0-5.3-.85-2.58-.86-4.67-2.55-2.09-1.7-3.33-4.19-1.23-2.5-1.23-5.8 0-4.11 1.47-7.2 1.47-3.08 3.99-5.14 2.51-2.05 5.7-3.09 3.19-1.03 6.63-1.03 4.35 0 7.08 1.32 2.73 1.33 4.01 3.42t1.28 4.4q0 2.49-1.59 4.83-1.6 2.34-4.69 3.84-3.08 1.51-7.6 1.51-.43 0-1.13-.02-.71-.01-1.23-.03 0 1.42.68 2.04.67.63 1.69.79t2.06.16q.92 0 2.59-.31 1.68-.3 3.63-1.11t3.71-2.31l1.39 6.98q-2.65 2.3-6.71 3.32-4.05 1.02-8.43 1.02m-.61-15.7 4.92-1.1.43-3.44q0-.13.02-.26.02-.12.02-.25 0-1.98-1.84-1.98-1.59.13-2.22 1.09-.63.95-.81 2.49t-.52 3.45m20.46 13.68v-8.33q.42.02 1.61.44 1.19.43 2.68.85 1.48.41 2.76.41.65 0 1.05-.23.41-.24.41-.87 0-.83-.87-1.39-.86-.56-2.14-1.18t-2.57-1.58q-1.3-.97-2.16-2.6t-.86-4.21q0-2.51 1.06-4.26 1.07-1.74 2.88-2.8 1.81-1.07 4.06-1.55 2.26-.49 4.64-.49 2.04 0 3.86.21 1.82.2 3.09.43 1.27.24 1.61.33v8.47l-.8-.18q-.8-.18-1.99-.41-1.19-.22-2.4-.4t-2.07-.18q-.65 0-1 .29-.34.29-.34.68 0 .35.38.69t1.55.81q1.77.72 3.3 1.45t2.68 1.74q1.16 1.01 1.8 2.58.64 1.58.64 4 0 4.63-3.28 6.96-3.28 2.34-8.71 2.34-4.32 0-6.67-.51-2.36-.5-3.28-1.01z"></path><rect width="160" height="28.25" x="-80" y="-14.125" fill="none" rx="0" ry="0" transform="translate(193.18 546.19)"></rect><path fill="#282a36" d="M118.07 539.23v14.81h2.54v-12.35l-.55-2.46zm8.29 5.92v8.89h2.52v-9.06q0-2.53-.9-4.21t-3.42-1.68q-2.23 0-3.77 1.64-1.54 1.65-1.54 3.81l1.33.68q0-2.05.88-3.2.87-1.15 2.29-1.15 1.4 0 2 1.05.61 1.06.61 3.23m8.25 0v8.89h2.52v-9.06q0-2.53-.88-4.21-.89-1.68-3.4-1.68-2.24 0-3.78 1.66-1.55 1.65-1.55 3.79l1.35.68q0-2.05.88-3.2.87-1.15 2.27-1.15 1.41 0 2 1.05.59 1.06.59 3.23m9.99 9.04q1.09 0 1.94-.2.86-.19 1.48-.5.63-.3 1.03-.65t.56-.66l.21 1.87h2.12v-9.42q0-2-.72-3.22-.72-1.21-2.1-1.76-1.37-.55-3.35-.55-1.17 0-2.2.24-1.02.25-1.83.77-.8.53-1.35 1.38-.54.85-.74 2.07l2.47.67q.19-1.24.69-1.99.49-.74 1.25-1.08.76-.33 1.73-.33 1.11 0 1.92.37.81.38 1.25 1.18.44.81.44 2.12v.84h-4.84q-1.16 0-2.1.21t-1.59.71q-.66.49-1.01 1.33-.35.85-.35 2.12 0 1.33.36 2.2.35.87 1.04 1.37.68.5 1.61.7.93.21 2.08.21m.55-1.66q-.64 0-1.2-.14-.56-.13-.99-.44-.42-.31-.65-.87-.24-.57-.24-1.47 0-.87.24-1.43.24-.57.66-.87.42-.31.98-.43t1.2-.12h4.21v3.87q-.21.46-.77.9-.57.43-1.43.71-.87.29-2.01.29m16.2-8.08-1.74 1.77 4.21 7.82h2.74zm-6.69-10.03v19.62h2.52v-5.37l2.57-2.43 1.56-1.52 5.07-5.5h-2.97l-6.23 6.61v-11.41zm20.06 19.75v-1.68q-1.9 0-2.96-1.39-1.07-1.36-1.07-4.5 0-3.31 1.11-4.58 1.1-1.27 2.89-1.27 1.83 0 2.86 1.2.89 1.13.99 3.85h-8.13v1.58h10.63q.05-.38.05-.81 0-3.72-1.48-5.6-1.49-1.89-4.92-1.89-3.34 0-4.89 1.89-1.56 1.87-1.56 5.63 0 3.55 1.52 5.57 1.51 2 4.96 2m0-1.68v1.68q1.88 0 3.1-.49 1.23-.49 2-1.56t.98-2.59l-2.28-.61q-.21 1.1-.63 1.97-.45.88-1.27 1.24-.81.36-1.9.36m17.28-11.5v13.05h2.52v-13.05h4.24v-1.76h-4.24v-.93q0-1.38 1.07-1.83 1.06-.45 2.96-.45h.37v-1.7h-.42q-2.96 0-4.73.88t-1.77 3.09v.94h-3.01v1.76zm18.53 10.55.57 2.5h1.96v-14.81h-2.53zm-6.82-3.87v-8.45h-2.53v8.55q0 3.02 1.06 4.71 1.06 1.7 3.66 1.7 2.7 0 4.29-1.62t1.59-3.43l-1.23-.74q0 1.75-1.1 2.88-1.09 1.13-2.67 1.13-1.56 0-2.31-1.07-.76-1.08-.76-3.66m18.6 6.53q1.37 0 2.62-.31v-1.71q-.86.29-1.77.29-1.03 0-1.59-.44t-.56-1.8V541h4.9v-1.77h-4.9v-3.35h-2.54v3.35h-3.46V541h3.46v9.82q0 1.95 1.1 2.66 1.1.72 2.74.72m15.02-2.66.57 2.5h1.96v-14.81h-2.53zm-6.82-3.87v-8.45h-2.53v8.55q0 3.02 1.06 4.71 1.06 1.7 3.66 1.7 2.7 0 4.29-1.62t1.59-3.43l-1.23-.74q0 1.75-1.1 2.88-1.09 1.13-2.67 1.13-1.56 0-2.31-1.07-.76-1.08-.76-3.66m21.07-1.54h2.53q0-3.66-.98-5.35-.98-1.68-3.51-1.68-2.45 0-3.9 1.34t-1.45 3.24l.98.71q0-1.36.92-2.44.93-1.08 2.54-1.08 1.41 0 2.14 1.1.73 1.11.73 4.16m-8.85-6.9v14.81h2.53v-11.95l-.54-2.86zm20.17 14.94v-1.68q-1.9 0-2.96-1.39-1.08-1.36-1.08-4.5 0-3.31 1.11-4.58 1.1-1.27 2.89-1.27 1.84 0 2.86 1.2.89 1.13.99 3.85h-8.12v1.58h10.62q.05-.38.05-.81 0-3.72-1.47-5.6-1.49-1.89-4.93-1.89-3.34 0-4.89 1.89-1.56 1.87-1.56 5.63 0 3.55 1.53 5.57 1.51 2 4.96 2m0-1.68v1.68q1.87 0 3.1-.49 1.22-.49 2-1.56.76-1.07.97-2.59l-2.27-.61q-.21 1.1-.64 1.97-.45.88-1.26 1.24t-1.9.36"></path><path fill="#491211" d="M191.755 78.317c22.242 0 40.305-17.557 40.305-39.193S214.03-.069 191.755-.069c-22.275-.034-40.339 17.524-40.305 39.193-.034 21.635 18.03 39.193 40.305 39.193m0 82.026h-42.731v-30.06l-32.555 31.947c-14.76 14.356-34.71-4.01-19.916-18.4l53.92-52.572a22.92 22.92 0 0 1 16.85-6.942h48.393a23.6 23.6 0 0 1 17.187 6.908l54.527 53.246c14.052 13.581-6.437 32.116-19.884 18.232l-33.531-32.588v30.229zm-8.66 51.831-33.869-32.959c-8.728 71.174-14.76 122.5-14.76 122.5h25.78c11.694-42.328 22.849-89.575 22.849-89.575"></path><path fill="#491211" d="M160.044 302.49c0 6.874-5.73 12.469-12.806 12.469-7.077 0-12.806-5.595-12.806-12.47s5.729-12.468 12.806-12.468 12.806 5.594 12.806 12.469"></path><path fill="#491211" d="m159.774 305.152 8.762-34.475-11.29-6.909-4.818 24.028-2.663 17.356zm40.676-92.978 33.902-32.959c8.728 71.174 14.76 122.5 14.76 122.5h-25.78c-11.727-42.294-22.882-89.541-22.882-89.541"></path><path fill="#491211" d="M223.467 302.49c0 6.874 5.729 12.469 12.806 12.469s12.806-5.595 12.806-12.47-5.73-12.468-12.806-12.468c-7.077 0-12.806 5.594-12.806 12.469"></path><path fill="#491211" d="m223.804 305.152-8.762-34.475 11.29-6.909 4.785 24.028 2.696 17.356z"></path></svg></svg>
